<svg width="223" height="223" viewBox="0 0 223 223" fill="none" xmlns="http://www.w3.org/2000/svg">
<g clip-path="url(#clip0_488_232)">
<path d="M91.6211 3.17005C89.0157 0.434395 85.1076 -0.607761 81.46 0.347548C77.8125 1.30286 74.99 4.21221 74.0347 7.85975L67.1738 34.9992L40.2515 27.4002C36.6039 26.358 32.6958 27.4002 30.047 30.049C27.3982 32.6978 26.3561 36.6059 27.3982 40.2534L34.9973 67.1758L7.8578 74.0801C4.21026 74.9919 1.34433 77.8579 0.345595 81.5054C-0.653137 85.153 0.432442 89.0176 3.1681 91.623L23.2296 111.163L3.1681 130.704C0.432442 133.309 -0.609714 137.217 0.345595 140.865C1.3009 144.512 4.21026 147.335 7.8578 148.29L34.9973 155.151L27.3982 182.073C26.3561 185.721 27.3982 189.629 30.047 192.278C32.6958 194.927 36.6039 195.969 40.2515 194.927L67.1738 187.328L74.0347 214.467C74.9466 218.115 77.8125 220.981 81.46 221.979C85.1076 222.978 88.9722 221.892 91.6211 219.2L111.161 199.139L130.702 219.2C133.351 221.892 137.215 222.978 140.863 221.979C144.51 220.981 147.333 218.115 148.288 214.467L155.149 187.328L182.071 194.927C185.719 195.969 189.627 194.927 192.276 192.278C194.925 189.629 195.967 185.721 194.925 182.073L187.326 155.151L214.465 148.29C218.113 147.378 220.979 144.512 221.977 140.865C222.976 137.217 221.89 133.309 219.198 130.704L199.137 111.163L219.198 91.623C221.89 88.9742 222.976 85.1095 221.977 81.462C220.979 77.8144 218.113 74.9919 214.465 74.0366L187.326 67.1758L194.925 40.2534C195.967 36.6059 194.925 32.6978 192.276 30.049C189.627 27.4002 185.719 26.358 182.071 27.4002L155.149 34.9992L148.245 7.85975C147.333 4.21221 144.467 1.34628 140.819 0.347548C137.172 -0.651184 133.307 0.434395 130.702 3.17005L111.161 23.2315L91.6211 3.17005Z" fill="#D52B91"/>
<path d="M76.4777 112.543L76.157 108.267H73.3245L73.0039 112.543H69.6369L72.5763 75.1323H77.2259L80.1653 112.543H76.4777ZM73.9124 100.465L73.5383 105.061H75.8898L75.5692 100.465C75.1416 94.6927 74.9278 89.0277 74.7141 84.0039C74.5003 89.0277 74.3934 94.6927 73.9124 100.465ZM92.0875 94.4255H89.0412V85.9279C89.0412 85.1797 88.774 84.8056 88.0792 84.8056C87.3844 84.8056 87.0638 85.1797 87.0638 85.9279V109.016C87.0638 109.764 87.3844 110.138 88.0792 110.138C88.774 110.138 89.0412 109.764 89.0412 109.016V99.9302H92.0875V108.535C92.0875 111.474 90.6445 112.917 88.0258 112.917C85.3536 112.917 83.8571 111.474 83.8571 108.535V86.4089C83.8571 83.4695 85.3536 82.0265 88.0258 82.0265C90.6445 82.0265 92.0875 83.4695 92.0875 86.4089V94.4255ZM104.736 112.543H101.529V85.9279C101.529 85.0728 101.208 84.8056 100.567 84.8056C99.9258 84.8056 99.4982 85.2866 99.4982 85.9814V112.543H96.2916V75.1323H99.4982V83.6298C99.9258 82.7213 100.727 82.0265 101.957 82.0265C103.56 82.0265 104.736 82.9351 104.736 85.6073V112.543ZM117.212 97.9528H112.189V109.016C112.189 109.764 112.509 110.138 113.204 110.138C113.899 110.138 114.166 109.764 114.166 109.016V100.144H117.212V108.535C117.212 111.474 115.769 112.917 113.151 112.917C110.478 112.917 108.982 111.474 108.982 108.535V86.4089C108.982 83.4695 110.478 82.0265 113.151 82.0265C115.769 82.0265 117.212 83.4695 117.212 86.4089V97.9528ZM112.189 85.9279V95.2806H114.166V85.9279C114.166 85.1797 113.899 84.8056 113.204 84.8056C112.509 84.8056 112.189 85.1797 112.189 85.9279ZM124.836 112.81C122.751 112.81 121.789 111.955 121.789 109.657V85.0728H120.827V82.4006H121.789V77.6976H125.049V82.4006H126.653V85.0728H125.049V109.176C125.049 109.871 125.317 110.031 125.798 110.031C126.118 110.031 126.332 109.978 126.653 109.924V112.543C126.118 112.703 125.477 112.81 124.836 112.81ZM138.475 97.9528H133.451V109.016C133.451 109.764 133.772 110.138 134.467 110.138C135.162 110.138 135.429 109.764 135.429 109.016V100.144H138.475V108.535C138.475 111.474 137.032 112.917 134.413 112.917C131.741 112.917 130.245 111.474 130.245 108.535V86.4089C130.245 83.4695 131.741 82.0265 134.413 82.0265C137.032 82.0265 138.475 83.4695 138.475 86.4089V97.9528ZM133.451 85.9279V95.2806H135.429V85.9279C135.429 85.1797 135.162 84.8056 134.467 84.8056C133.772 84.8056 133.451 85.1797 133.451 85.9279ZM145.938 112.543H142.731V82.4006H145.724V84.1643C145.991 82.9351 146.953 82.0265 148.396 82.0265C149.946 82.0265 150.855 82.9351 150.855 85.6073V99.2889H147.915V85.9279C147.915 85.0728 147.595 84.8056 147.007 84.8056C146.366 84.8056 145.938 85.2866 145.938 85.9814V112.543ZM70.3851 162.543V125.132H74.0727V159.39H77.4397V162.543H70.3851ZM89.1648 147.953H84.1411V159.016C84.1411 159.764 84.4617 160.138 85.1565 160.138C85.8513 160.138 86.1185 159.764 86.1185 159.016V150.144H89.1648V158.535C89.1648 161.474 87.7218 162.917 85.1031 162.917C82.4309 162.917 80.9344 161.474 80.9344 158.535V136.409C80.9344 133.469 82.4309 132.027 85.1031 132.027C87.7218 132.027 89.1648 133.469 89.1648 136.409V147.953ZM84.1411 135.928V145.281H86.1185V135.928C86.1185 135.18 85.8513 134.806 85.1565 134.806C84.4617 134.806 84.1411 135.18 84.1411 135.928ZM104.362 162.543H101.156V125.132H104.362V162.543ZM111.941 162.543H108.734V132.401H111.941V162.543ZM111.941 130.584H108.734V126.736H111.941V130.584ZM120.962 142.822L121.817 132.401H124.756L122.191 162.543H118.236L115.671 132.401H118.984L119.786 142.769C120.053 146.937 120.267 151.373 120.374 154.473C120.534 151.373 120.588 146.937 120.962 142.822ZM131.69 162.543H128.483V132.401H131.476V134.164C131.743 132.935 132.705 132.027 134.148 132.027C135.698 132.027 136.607 132.935 136.607 135.607V149.289H133.667V135.928C133.667 135.073 133.347 134.806 132.759 134.806C132.117 134.806 131.69 135.287 131.69 135.981V162.543ZM148.778 147.953H143.754V159.016C143.754 159.764 144.075 160.138 144.769 160.138C145.464 160.138 145.731 159.764 145.731 159.016V150.144H148.778V158.535C148.778 161.474 147.335 162.917 144.716 162.917C142.044 162.917 140.547 161.474 140.547 158.535V136.409C140.547 133.469 142.044 132.027 144.716 132.027C147.335 132.027 148.778 133.469 148.778 136.409V147.953ZM143.754 135.928V145.281H145.731V135.928C145.731 135.18 145.464 134.806 144.769 134.806C144.075 134.806 143.754 135.18 143.754 135.928Z" fill="white"/>
</g>
<defs>
<clipPath id="clip0_488_232">
<rect width="222.327" height="222.327" fill="white"/>
</clipPath>
</defs>
</svg>
